#!OML:ASF F:\VICON\USERDATA\INSTALL\rory3\rory3.ASF
:FULLY-SPECIFIED
:DEGREES
2857
root -13.5649 17.7743 -9.17779 27.8712 48.0111 14.6684
lowerback 14.1273 2.88351 2.68645
upperback 7.23718 4.58462 8.27781
thorax -0.730148 2.34071 6.55439
lowerneck -8.38425 -11.1346 -7.04709
upperneck 33.9439 -14.906 3.92278
head 13.7709 -6.49178 0.683909
rclavicle 9.54166e-015 -3.49861e-014
rhumerus 3.55287 8.63014 -90.8955
rradius 29.8663
rwrist 2.55831
rhand 9.05627 -11.2824
rfingers 7.12502
rthumb 34.2307 -38.0147
lclavicle 9.54166e-015 -3.49861e-014
lhumerus -18.1775 -29.3239 94.4202
lradius 56.7765
lwrist 67.9318
lhand -18.2135 51.4818
lfingers 7.12502
lthumb 8.06431 -998.692
rfemur -32.3176 -7.68847 4.47404
rtibia 39.0043
rfoot -21.58 -10.5038
rtoes 4.56476
lfemur -27.2368 -2.20275 -18.9091
ltibia 17.5671
lfoot -0.438415 1.4311
ltoes -24.9149
2858
root -13.4969 17.7658 -9.23199 27.7182 47.7971 14.5857
lowerback 14.1629 2.9703 2.59321
upperback 7.31644 4.68517 8.30454
thorax -0.684122 2.38817 6.62219
lowerneck -8.49203 -11.2097 -6.99057
upperneck 33.89 -15.006 3.86595
head 13.7655 -6.53525 0.630701
rclavicle 2.22639e-014 3.18055e-015
rhumerus 3.46599 8.20768 -91.3151
rradius 30.3268
rwrist 3.16392
rhand 9.49759 -11.3706
rfingers 7.12502
rthumb 34.6497 -38.0077
lclavicle 2.22639e-014 3.18055e-015
lhumerus -18.3478 -28.2584 94.1584
lradius 57.8152
lwrist 71.656
lhand -25.4504 53.7111
lfingers 7.12502
lthumb 1.07654 -996.312
rfemur -32.1512 -7.50106 4.07055
rtibia 38.86
rfoot -21.4628 -10.4474
rtoes 4.80903
lfemur -27.1925 -1.84797 -19.4061
ltibia 17.8675
lfoot -0.865241 1.18585
ltoes -25.6164
2859
root -13.4291 17.7607 -9.28537 27.4057 47.7317 14.3539
lowerback 14.2709 2.99249 2.66593
upperback 7.33898 4.73168 8.34105
thorax -0.719585 2.41298 6.60863
lowerneck -8.36831 -11.2547 -7.08242
upperneck 33.771 -15.1261 4.09146
head 13.7281 -6.57798 0.720631
rclavicle 5.725e-014 6.67916e-014
rhumerus 3.22652 7.85035 -91.5202
rradius 31.2736
rwrist 3.45717
rhand 9.67841 -11.8237
rfingers 7.12502
rthumb 34.8213 -38.4213
lclavicle 5.725e-014 6.67916e-014
lhumerus -18.5443 -27.106 93.8335
lradius 57.7178
lwrist 72.0348
lhand -26.2797 53.4088
lfingers 7.12502
lthumb 0.275577 -996.612
rfemur -31.8633 -7.15385 3.78902
rtibia 38.6914
rfoot -21.6671 -10.4912
rtoes 5.49695
lfemur -27.0971 -1.40829 -19.8153
ltibia 18.1245
lfoot -1.22993 1.04068
ltoes -26.6629
2860
root -13.3626 17.7616 -9.33731 27.1437 47.603 14.1799
lowerback 14.3562 3.03503 2.63304
upperback 7.34863 4.78964 8.36275
thorax -0.764891 2.44101 6.63775
lowerneck -8.12048 -11.3018 -7.30081
upperneck 33.667 -15.2663 4.44476
head 13.6999 -6.63036 0.883033
rclavicle 1.27222e-014 6.36111e-015
rhumerus 3.39511 8.68909 -91.1386
rradius 31.2822
rwrist 1.89052
rhand 8.69909 -11.9235
rfingers 7.12502
rthumb 33.8915 -38.7313
lclavicle 1.27222e-014 6.36111e-015
lhumerus -18.8202 -26.0045 93.5696
lradius 57.7265
lwrist 72.4017
lhand -27.1166 53.5335
lfingers 7.12502
lthumb -0.532669 -996.487
rfemur -31.5857 -6.81898 3.48419
rtibia 38.4974
rfoot -21.6765 -10.6479
rtoes 5.61037
lfemur -26.9728 -0.997275 -20.25
ltibia 18.3581
lfoot -1.66365 1.02861
ltoes -27.2943
2861
root -13.2915 17.7626 -9.39357 27.0737 47.372 14.1193
lowerback 14.2761 3.16118 2.52662
upperback 7.39526 4.92803 8.31437
thorax -0.691144 2.5066 6.62934
lowerneck -8.0715 -11.415 -7.18162
upperneck 33.561 -15.4645 4.48794
head 13.6499 -6.70149 0.853396
rclavicle -5.40694e-014 -6.99722e-014
rhumerus 3.69522 9.34699 -91.1074
rradius 30.0286
rwrist 0.13523
rhand 6.94201 -10.9422
rfingers 7.12502
rthumb 32.2205 -38.1037
lclavicle -5.40694e-014 -6.99722e-014
lhumerus -18.8224 -25.2408 93.2935
lradius 57.4644
lwrist 72.2733
lhand -27.311 53.781
lfingers 7.12502
lthumb -0.720445 -996.24
rfemur -31.4373 -6.66179 3.10118
rtibia 38.2779
rfoot -21.4681 -10.8677
rtoes 4.47958
lfemur -26.9686 -0.523604 -20.8592
ltibia 18.6125
lfoot -2.14218 1.11439
ltoes -26.7213
2862
root -13.2178 17.7617 -9.45673 27.0355 47.1715 14.0412
lowerback 14.1948 3.26658 2.47494
upperback 7.40855 5.04873 8.27524
thorax -0.646786 2.56465 6.6016
lowerneck -8.15306 -11.4984 -6.89184
upperneck 33.6143 -15.5832 4.30114
head 13.6492 -6.73625 0.713616
rclavicle 6.04305e-014 3.18055e-014
rhumerus 3.30897 8.29169 -91.4164
rradius 30.388
rwrist -0.120184
rhand 6.47908 -10.9545
rfingers 7.12502
rthumb 31.7797 -38.2044
lclavicle 6.04305e-014 3.18055e-014
lhumerus -18.8736 -24.655 93.1456
lradius 57.1737
lwrist 71.8469
lhand -27.18 53.7947
lfingers 7.12502
lthumb -0.593938 -996.226
rfemur -31.3311 -6.4779 2.70015
rtibia 38.027
rfoot -21.3515 -11.0149
rtoes 4.17085
lfemur -27.0716 -0.130737 -21.4681
ltibia 18.8708
lfoot -2.63105 1.51701
ltoes -24.394
